<?xml version="1.0" encoding="utf-8"?>
<!-- Generator: Adobe Illustrator 22.1.0, SVG Export Plug-In . SVG Version: 6.00 Build 0)  -->
<svg version="1.1" id="Layer_1" xmlns="http://www.w3.org/2000/svg" xmlns:xlink="http://www.w3.org/1999/xlink" x="0px" y="0px"
	 viewBox="0 0 400 400" style="enable-background:new 0 0 400 400;" xml:space="preserve">
<style type="text/css">
	.st0{fill:#F26967;}
	.st1{fill:#FFFFFF;}
	.st2{fill:#37BFE9;}
	.st3{fill:#232527;}
</style>
<g>
	<path class="st0" d="M108.6,330.5h-5.4c-2.6,0-3.3-0.5-3.7-2.1l-1.1-3.6H87.5l-1.1,3.6c-0.5,1.5-1.1,2.1-3.6,2.1h-5.2
		c-1.5,0-1.8-0.7-1.3-2l11.5-31.6c0.5-1.4,1.1-1.7,2.6-1.7h5.7c1.4,0,2.1,0.3,2.6,1.6l11.5,31.7
		C110.5,329.8,110.1,330.5,108.6,330.5z M93.1,304.2h-0.5c0,0,0,3.6-0.9,6.9l-1.8,5.9h6.2l-1.8-5.8
		C93.2,307.8,93.1,304.2,93.1,304.2z"/>
	<path class="st0" d="M143,307.6c0,7.9-5,12.3-12.8,12.3h-6.1v8.5c0,1.5-0.5,2.1-2.1,2.1h-5.6c-1.6,0-2.1-0.5-2.1-2.1v-31.2
		c0-1.5,0.5-2.1,2.1-2.1h13.8C137.9,295.1,143,299.6,143,307.6z M132.7,307.5c0-2.2-1.4-3.7-3.7-3.7h-4.9v7.3h4.9
		C131.4,311.2,132.7,309.7,132.7,307.5z"/>
	<path class="st1" d="M162.5,294.4c7.7,0,12.5,3.1,14.6,8.7c0.5,1.4,0.1,2.2-1.3,2.7l-5.3,1.9c-1.5,0.4-2.1,0.2-2.7-1.3
		c-0.9-2.2-2.4-3.2-5.2-3.2c-3.9,0-5.5,1.7-5.5,5.2v9.1c0,3.5,1.5,5.2,5.5,5.2c2.8,0,4.4-1.1,5.2-3.2c0.6-1.5,1.2-1.9,2.7-1.3
		l5.3,1.9c1.5,0.5,1.8,1.2,1.3,2.7c-2.1,5.6-6.9,8.7-14.6,8.7c-9.8,0-15.4-5.3-15.4-14v-9C147.1,299.7,152.6,294.4,162.5,294.4z"/>
	<path class="st1" d="M191.8,297.2v24.6h12c1.5,0,2.1,0.5,2.1,2.1v4.5c0,1.5-0.5,2.1-2.1,2.1h-19.7c-1.6,0-2.1-0.5-2.1-2.1v-31.2
		c0-1.5,0.5-2.1,2.1-2.1h5.6C191.3,295.1,191.8,295.7,191.8,297.2z"/>
	<path class="st1" d="M224.4,294.4c9.8,0,15.3,5.3,15.3,14v9c0,8.6-5.5,14-15.3,14c-9.9,0-15.4-5.3-15.4-14v-9
		C209,299.7,214.5,294.4,224.4,294.4z M224.4,303.1c-3.5,0-5.5,1.6-5.5,4.8v9.9c0,3.1,2,4.8,5.5,4.8c3.4,0,5.4-1.6,5.4-4.8v-9.9
		C229.8,304.7,227.8,303.1,224.4,303.1z"/>
	<path class="st1" d="M260.1,322.5c3.4,0,5.2-1.6,5.2-4.6v-20.7c0-1.5,0.5-2.1,2.1-2.1h5.6c1.6,0,2.1,0.5,2.1,2.1v20.3
		c0,8.4-5.2,13.8-15.1,13.8c-9.8,0-15-5.4-15-13.8v-20.3c0-1.5,0.5-2.1,2.1-2.1h5.6c1.6,0,2.1,0.5,2.1,2.1V318
		C255,320.9,256.7,322.5,260.1,322.5z"/>
	<path class="st1" d="M311,309.1v7.5c0,8.6-5.5,14-15.3,14h-12.2c-1.6,0-2.1-0.5-2.1-2.1v-31.2c0-1.5,0.5-2.1,2.1-2.1h12.2
		C305.5,295.1,311,300.4,311,309.1z M295.4,303.8h-4.1v18h4.1c4,0,5.8-1.8,5.8-5.4v-7.2C301.1,305.7,299.4,303.8,295.4,303.8z"/>
</g>
<g>
	<path class="st1" d="M65.6,354.8h-1.9l-1.8-6.3c-0.1-0.3-0.2-0.7-0.3-1.2c-0.1-0.5-0.2-0.9-0.2-1.1c0,0.3-0.1,0.7-0.2,1.2
		c-0.1,0.5-0.2,0.9-0.3,1.1l-1.8,6.3h-1.9l-1.4-5.3l-1.4-5.3h1.8l1.5,6.2c0.2,1,0.4,1.9,0.5,2.6c0.1-0.4,0.1-0.9,0.2-1.4
		c0.1-0.5,0.2-0.9,0.3-1.2l1.7-6.2h1.7l1.8,6.2c0.2,0.6,0.3,1.4,0.5,2.6c0.1-0.7,0.2-1.6,0.5-2.6l1.5-6.2h1.8L65.6,354.8z"/>
	<path class="st1" d="M77.3,350.8c0,1.3-0.3,2.3-1,3.1c-0.7,0.7-1.6,1.1-2.8,1.1c-0.7,0-1.4-0.2-2-0.5c-0.6-0.3-1-0.8-1.3-1.5
		c-0.3-0.6-0.5-1.4-0.5-2.2c0-1.3,0.3-2.3,1-3s1.6-1.1,2.8-1.1c1.2,0,2.1,0.4,2.8,1.1C76.9,348.5,77.3,349.5,77.3,350.8z
		 M71.4,350.8c0,1.8,0.7,2.8,2,2.8c1.4,0,2-0.9,2-2.8c0-1.8-0.7-2.7-2-2.7c-0.7,0-1.2,0.2-1.6,0.7C71.6,349.2,71.4,349.9,71.4,350.8
		z"/>
	<path class="st1" d="M83.7,346.6c0.3,0,0.6,0,0.8,0.1l-0.2,1.6c-0.2-0.1-0.5-0.1-0.8-0.1c-0.7,0-1.2,0.2-1.7,0.7
		c-0.4,0.4-0.6,1-0.6,1.7v4.2h-1.7v-8H81l0.2,1.4h0.1c0.3-0.5,0.6-0.9,1-1.1C82.8,346.8,83.2,346.6,83.7,346.6z"/>
	<path class="st1" d="M88.2,354.8h-1.7v-11.3h1.7V354.8z"/>
	<path class="st1" d="M93.8,354.9c-1,0-1.8-0.4-2.3-1.1c-0.6-0.7-0.8-1.7-0.8-3c0-1.3,0.3-2.3,0.9-3.1s1.4-1.1,2.4-1.1
		c1.1,0,1.9,0.4,2.4,1.2h0.1c-0.1-0.6-0.1-1-0.1-1.4v-2.9h1.7v11.3h-1.3l-0.3-1h-0.1C95.6,354.5,94.8,354.9,93.8,354.9z M94.2,353.5
		c0.7,0,1.2-0.2,1.5-0.6c0.3-0.4,0.5-1,0.5-1.9v-0.2c0-1-0.2-1.7-0.5-2.2c-0.3-0.4-0.8-0.6-1.5-0.6c-0.6,0-1.1,0.2-1.4,0.7
		s-0.5,1.2-0.5,2.1c0,0.9,0.2,1.6,0.5,2S93.6,353.5,94.2,353.5z"/>
	<path class="st1" d="M102.1,344.2l0.1,0.2c-0.3,1-0.7,2.2-1.3,3.5h-1.2c0.3-1.4,0.6-2.6,0.7-3.6H102.1z"/>
	<path class="st1" d="M109.4,352.5c0,0.8-0.3,1.4-0.9,1.8c-0.6,0.4-1.4,0.6-2.4,0.6c-1.1,0-1.9-0.2-2.6-0.5V353
		c0.9,0.4,1.8,0.7,2.6,0.7c1,0,1.6-0.3,1.6-0.9c0-0.2-0.1-0.4-0.2-0.5c-0.1-0.1-0.3-0.3-0.6-0.4c-0.3-0.1-0.6-0.3-1.1-0.5
		c-0.9-0.4-1.5-0.7-1.9-1.1c-0.3-0.4-0.5-0.8-0.5-1.4c0-0.7,0.3-1.2,0.8-1.6s1.3-0.6,2.3-0.6c0.9,0,1.8,0.2,2.7,0.6l-0.6,1.3
		c-0.9-0.4-1.6-0.5-2.2-0.5c-0.9,0-1.3,0.3-1.3,0.8c0,0.3,0.1,0.5,0.4,0.6s0.7,0.4,1.5,0.7c0.7,0.3,1.1,0.5,1.4,0.7
		c0.3,0.2,0.5,0.5,0.7,0.7C109.4,351.8,109.4,352.1,109.4,352.5z"/>
	<path class="st1" d="M124.8,349.4c0,1.7-0.5,3.1-1.5,4c-1,0.9-2.4,1.4-4.2,1.4h-3v-10.6h3.3c1.7,0,3,0.5,3.9,1.4
		S124.8,347.7,124.8,349.4z M123,349.4c0-2.5-1.2-3.8-3.6-3.8h-1.5v7.7h1.2C121.7,353.3,123,352,123,349.4z"/>
	<path class="st1" d="M130.8,354.9c-1.2,0-2.2-0.4-2.9-1.1c-0.7-0.7-1.1-1.7-1.1-3c0-1.3,0.3-2.3,1-3.1c0.7-0.7,1.5-1.1,2.7-1.1
		c1.1,0,1.9,0.3,2.5,1s0.9,1.5,0.9,2.6v0.9h-5.3c0,0.8,0.2,1.4,0.6,1.8c0.4,0.4,1,0.6,1.7,0.6c0.5,0,0.9,0,1.3-0.1
		c0.4-0.1,0.8-0.2,1.3-0.4v1.4c-0.4,0.2-0.8,0.3-1.3,0.4S131.4,354.9,130.8,354.9z M130.5,347.9c-0.5,0-1,0.2-1.3,0.5
		c-0.3,0.3-0.5,0.8-0.6,1.5h3.6c0-0.7-0.2-1.2-0.5-1.5C131.5,348.1,131.1,347.9,130.5,347.9z"/>
	<path class="st1" d="M141.7,352.5c0,0.8-0.3,1.4-0.9,1.8c-0.6,0.4-1.4,0.6-2.4,0.6c-1.1,0-1.9-0.2-2.6-0.5V353
		c0.9,0.4,1.8,0.7,2.6,0.7c1,0,1.6-0.3,1.6-0.9c0-0.2-0.1-0.4-0.2-0.5c-0.1-0.1-0.3-0.3-0.6-0.4c-0.3-0.1-0.6-0.3-1.1-0.5
		c-0.9-0.4-1.5-0.7-1.9-1.1c-0.3-0.4-0.5-0.8-0.5-1.4c0-0.7,0.3-1.2,0.8-1.6s1.3-0.6,2.3-0.6c0.9,0,1.8,0.2,2.7,0.6l-0.6,1.3
		c-0.9-0.4-1.6-0.5-2.2-0.5c-0.9,0-1.3,0.3-1.3,0.8c0,0.3,0.1,0.5,0.4,0.6s0.7,0.4,1.5,0.7c0.7,0.3,1.1,0.5,1.4,0.7
		c0.3,0.2,0.5,0.5,0.7,0.7C141.6,351.8,141.7,352.1,141.7,352.5z"/>
	<path class="st1" d="M147,353.5c0.4,0,0.8-0.1,1.2-0.2v1.3c-0.2,0.1-0.4,0.2-0.7,0.2s-0.6,0.1-0.9,0.1c-1.6,0-2.4-0.8-2.4-2.5v-4.3
		H143v-0.8l1.2-0.6l0.6-1.7h1v1.8h2.3v1.3h-2.3v4.3c0,0.4,0.1,0.7,0.3,0.9S146.6,353.5,147,353.5z"/>
	<path class="st1" d="M150.2,344.6c0-0.3,0.1-0.5,0.2-0.7c0.2-0.2,0.4-0.2,0.7-0.2c0.3,0,0.5,0.1,0.7,0.2c0.2,0.2,0.3,0.4,0.3,0.7
		c0,0.3-0.1,0.5-0.3,0.7c-0.2,0.2-0.4,0.3-0.7,0.3c-0.3,0-0.5-0.1-0.7-0.3C150.2,345.2,150.2,344.9,150.2,344.6z M152,354.8h-1.7v-8
		h1.7V354.8z"/>
	<path class="st1" d="M161.9,354.8h-1.7v-4.9c0-0.6-0.1-1.1-0.4-1.4s-0.6-0.5-1.2-0.5c-0.7,0-1.2,0.2-1.6,0.6
		c-0.3,0.4-0.5,1.1-0.5,2.1v4h-1.7v-8h1.3l0.2,1h0.1c0.2-0.4,0.6-0.7,1-0.9c0.4-0.2,0.9-0.3,1.5-0.3c1.9,0,2.9,1,2.9,2.9V354.8z"/>
	<path class="st1" d="M169.7,354.8l-0.3-1.1h-0.1c-0.4,0.5-0.8,0.8-1.2,1c-0.4,0.2-0.9,0.3-1.5,0.3c-0.8,0-1.4-0.2-1.8-0.6
		c-0.4-0.4-0.7-1-0.7-1.8c0-0.8,0.3-1.4,0.9-1.9s1.5-0.6,2.8-0.7l1.4,0v-0.4c0-0.5-0.1-0.9-0.4-1.1c-0.2-0.3-0.6-0.4-1.1-0.4
		c-0.4,0-0.8,0.1-1.2,0.2c-0.4,0.1-0.7,0.3-1.1,0.4l-0.6-1.2c0.4-0.2,0.9-0.4,1.4-0.5c0.5-0.1,1-0.2,1.5-0.2c1,0,1.8,0.2,2.3,0.7
		c0.5,0.4,0.8,1.1,0.8,2.1v5.4H169.7z M167.2,353.6c0.6,0,1.1-0.2,1.5-0.5s0.6-0.8,0.6-1.5V351l-1,0c-0.8,0-1.4,0.2-1.7,0.4
		c-0.4,0.2-0.5,0.6-0.5,1.1c0,0.4,0.1,0.6,0.3,0.8C166.4,353.5,166.7,353.6,167.2,353.6z"/>
	<path class="st1" d="M176.7,353.5c0.4,0,0.8-0.1,1.2-0.2v1.3c-0.2,0.1-0.4,0.2-0.7,0.2s-0.6,0.1-0.9,0.1c-1.6,0-2.4-0.8-2.4-2.5
		v-4.3h-1.1v-0.8l1.2-0.6l0.6-1.7h1v1.8h2.3v1.3h-2.3v4.3c0,0.4,0.1,0.7,0.3,0.9S176.4,353.5,176.7,353.5z"/>
	<path class="st1" d="M179.9,344.6c0-0.3,0.1-0.5,0.2-0.7c0.2-0.2,0.4-0.2,0.7-0.2c0.3,0,0.5,0.1,0.7,0.2c0.2,0.2,0.3,0.4,0.3,0.7
		c0,0.3-0.1,0.5-0.3,0.7c-0.2,0.2-0.4,0.3-0.7,0.3c-0.3,0-0.5-0.1-0.7-0.3C180,345.2,179.9,344.9,179.9,344.6z M181.7,354.8H180v-8
		h1.7V354.8z"/>
	<path class="st1" d="M191.7,350.8c0,1.3-0.3,2.3-1,3.1c-0.7,0.7-1.6,1.1-2.8,1.1c-0.7,0-1.4-0.2-2-0.5c-0.6-0.3-1-0.8-1.3-1.5
		c-0.3-0.6-0.5-1.4-0.5-2.2c0-1.3,0.3-2.3,1-3s1.6-1.1,2.8-1.1c1.2,0,2.1,0.4,2.8,1.1C191.3,348.5,191.7,349.5,191.7,350.8z
		 M185.9,350.8c0,1.8,0.7,2.8,2,2.8c1.4,0,2-0.9,2-2.8c0-1.8-0.7-2.7-2-2.7c-0.7,0-1.2,0.2-1.6,0.7
		C186,349.2,185.9,349.9,185.9,350.8z"/>
	<path class="st1" d="M201.1,354.8h-1.7v-4.9c0-0.6-0.1-1.1-0.4-1.4s-0.6-0.5-1.2-0.5c-0.7,0-1.2,0.2-1.6,0.6
		c-0.3,0.4-0.5,1.1-0.5,2.1v4h-1.7v-8h1.3l0.2,1h0.1c0.2-0.4,0.6-0.7,1-0.9c0.4-0.2,0.9-0.3,1.5-0.3c1.9,0,2.9,1,2.9,2.9V354.8z"/>
	<path class="st1" d="M212.2,348.1h-2v6.7h-1.7v-6.7h-1.3v-0.8l1.3-0.5v-0.5c0-0.9,0.2-1.6,0.7-2.1c0.4-0.5,1.1-0.7,2-0.7
		c0.6,0,1.2,0.1,1.8,0.3l-0.4,1.3c-0.4-0.1-0.8-0.2-1.2-0.2c-0.4,0-0.7,0.1-0.8,0.4c-0.2,0.2-0.3,0.6-0.3,1.1v0.5h2V348.1z"/>
	<path class="st1" d="M221.2,350.8c0,1.3-0.3,2.3-1,3.1s-1.6,1.1-2.8,1.1c-0.7,0-1.4-0.2-2-0.5c-0.6-0.3-1-0.8-1.3-1.5
		c-0.3-0.6-0.5-1.4-0.5-2.2c0-1.3,0.3-2.3,1-3s1.6-1.1,2.8-1.1c1.2,0,2.1,0.4,2.8,1.1C220.8,348.5,221.2,349.5,221.2,350.8z
		 M215.3,350.8c0,1.8,0.7,2.8,2,2.8c1.4,0,2-0.9,2-2.8c0-1.8-0.7-2.7-2-2.7c-0.7,0-1.2,0.2-1.6,0.7
		C215.5,349.2,215.3,349.9,215.3,350.8z"/>
	<path class="st1" d="M227.6,346.6c0.3,0,0.6,0,0.8,0.1l-0.2,1.6c-0.2-0.1-0.5-0.1-0.8-0.1c-0.7,0-1.2,0.2-1.7,0.7
		c-0.4,0.4-0.6,1-0.6,1.7v4.2h-1.7v-8h1.3l0.2,1.4h0.1c0.3-0.5,0.6-0.9,1-1.1S227.1,346.6,227.6,346.6z"/>
	<path class="st2" d="M243.6,349.3c0,1.8-0.5,3.1-1.5,4.1c-1,1-2.3,1.4-4.1,1.4h-3.4v-10.6h3.7c1.7,0,3,0.4,3.9,1.3
		C243.1,346.4,243.6,347.6,243.6,349.3z M240.6,349.4c0-1-0.2-1.7-0.6-2.2s-1-0.7-1.7-0.7h-0.8v5.9h0.6c0.9,0,1.5-0.3,1.9-0.8
		S240.6,350.4,240.6,349.4z"/>
	<path class="st2" d="M245.7,344.5c0-0.4,0.1-0.7,0.4-0.9c0.2-0.2,0.6-0.3,1.1-0.3c0.5,0,0.9,0.1,1.2,0.3c0.2,0.2,0.4,0.5,0.4,0.9
		c0,0.8-0.5,1.2-1.5,1.2C246.2,345.8,245.7,345.4,245.7,344.5z M248.6,354.8h-2.8v-8.2h2.8V354.8z"/>
	<path class="st2" d="M258.8,346.6v1.4l-1.1,0.4c0.2,0.3,0.2,0.6,0.2,1c0,0.9-0.3,1.6-0.9,2.1s-1.5,0.7-2.8,0.7
		c-0.3,0-0.5,0-0.7-0.1c-0.1,0.1-0.1,0.2-0.1,0.4c0,0.1,0.1,0.2,0.3,0.3c0.2,0.1,0.5,0.1,0.9,0.1h1.4c1.8,0,2.8,0.8,2.8,2.3
		c0,1-0.4,1.8-1.3,2.3c-0.9,0.6-2,0.8-3.6,0.8c-1.2,0-2.1-0.2-2.7-0.6c-0.6-0.4-0.9-0.9-0.9-1.7c0-1,0.6-1.6,1.8-1.9
		c-0.3-0.1-0.5-0.3-0.7-0.5s-0.3-0.5-0.3-0.7c0-0.3,0.1-0.5,0.2-0.7s0.4-0.4,0.9-0.7c-0.4-0.2-0.8-0.5-1-0.9
		c-0.2-0.4-0.4-0.9-0.4-1.5c0-0.9,0.3-1.6,0.9-2.1c0.6-0.5,1.5-0.7,2.6-0.7c0.1,0,0.4,0,0.8,0.1c0.4,0,0.6,0.1,0.8,0.1H258.8z
		 M252.6,355.8c0,0.2,0.1,0.4,0.4,0.6c0.3,0.1,0.6,0.2,1,0.2c0.7,0,1.2-0.1,1.6-0.3c0.4-0.2,0.6-0.4,0.6-0.7c0-0.2-0.1-0.4-0.4-0.5
		c-0.3-0.1-0.6-0.1-1.1-0.1h-1.1c-0.3,0-0.6,0.1-0.8,0.2C252.7,355.4,252.6,355.6,252.6,355.8z M253.5,349.3c0,0.8,0.3,1.3,0.9,1.3
		c0.3,0,0.5-0.1,0.6-0.3s0.2-0.5,0.2-0.9c0-0.8-0.3-1.3-0.8-1.3C253.8,348,253.5,348.4,253.5,349.3z"/>
	<path class="st2" d="M260.4,344.5c0-0.4,0.1-0.7,0.4-0.9c0.2-0.2,0.6-0.3,1.1-0.3c0.5,0,0.9,0.1,1.2,0.3c0.2,0.2,0.4,0.5,0.4,0.9
		c0,0.8-0.5,1.2-1.5,1.2C260.9,345.8,260.4,345.4,260.4,344.5z M263.3,354.8h-2.8v-8.2h2.8V354.8z"/>
	<path class="st2" d="M269.7,352.7c0.4,0,0.8-0.1,1.4-0.3v2.1c-0.4,0.2-0.7,0.3-1.1,0.4c-0.3,0.1-0.7,0.1-1.2,0.1
		c-1,0-1.6-0.2-2.1-0.7s-0.6-1.2-0.6-2.1v-3.4h-1v-1.2l1.3-0.9l0.7-1.7h1.9v1.6h2v2.1h-2v3.2C269,352.4,269.2,352.7,269.7,352.7z"/>
	<path class="st2" d="M278.3,354.8l-0.5-1.1h-0.1c-0.4,0.5-0.8,0.8-1.2,1c-0.4,0.2-0.9,0.3-1.5,0.3c-0.8,0-1.4-0.2-1.8-0.7
		c-0.4-0.5-0.7-1.1-0.7-2c0-0.9,0.3-1.5,0.9-2c0.6-0.4,1.5-0.7,2.6-0.7l1.4,0v-0.1c0-0.7-0.3-1-1-1c-0.6,0-1.4,0.2-2.3,0.6l-0.8-1.9
		c1-0.5,2.2-0.7,3.6-0.7c1.1,0,1.9,0.3,2.4,0.8c0.6,0.5,0.9,1.3,0.9,2.2v5.4H278.3z M276.2,352.9c0.3,0,0.6-0.1,0.9-0.3
		c0.2-0.2,0.4-0.5,0.4-0.8v-0.6l-0.7,0c-0.9,0-1.4,0.4-1.4,1C275.4,352.7,275.7,352.9,276.2,352.9z"/>
	<path class="st2" d="M285.5,354.8h-2.8v-11.3h2.8V354.8z"/>
	<path class="st2" d="M299.3,351.6c0,0.7-0.2,1.2-0.5,1.7s-0.8,0.9-1.4,1.2c-0.6,0.3-1.4,0.4-2.2,0.4c-0.7,0-1.3,0-1.8-0.1
		c-0.5-0.1-1-0.3-1.5-0.5v-2.5c0.5,0.3,1.1,0.5,1.7,0.7c0.6,0.2,1.1,0.2,1.6,0.2c0.4,0,0.7-0.1,0.9-0.2c0.2-0.1,0.3-0.3,0.3-0.6
		c0-0.1,0-0.3-0.1-0.4s-0.2-0.2-0.4-0.3c-0.2-0.1-0.6-0.3-1.4-0.7c-0.7-0.3-1.2-0.6-1.6-0.9c-0.3-0.3-0.6-0.6-0.8-1
		c-0.2-0.4-0.3-0.8-0.3-1.4c0-1,0.4-1.7,1.1-2.3c0.7-0.5,1.7-0.8,2.9-0.8c1.1,0,2.2,0.3,3.4,0.8l-0.9,2.2c-1-0.5-1.8-0.7-2.6-0.7
		c-0.4,0-0.6,0.1-0.8,0.2c-0.2,0.1-0.3,0.3-0.3,0.5c0,0.2,0.1,0.4,0.3,0.6c0.2,0.2,0.8,0.5,1.7,0.9c0.9,0.4,1.5,0.9,1.9,1.3
		C299.1,350.3,299.3,350.8,299.3,351.6z"/>
	<path class="st2" d="M303.9,350.2c0.3-0.5,0.6-1,0.9-1.3l1.8-2.3h3.2l-2.8,3.5l3,4.7h-3.2l-1.8-2.9l-0.9,0.7v2.2h-2.8v-11.3h2.8
		v4.4C304,348.7,304,349.4,303.9,350.2L303.9,350.2z"/>
	<path class="st2" d="M311.4,344.5c0-0.4,0.1-0.7,0.4-0.9c0.2-0.2,0.6-0.3,1.1-0.3c0.5,0,0.9,0.1,1.2,0.3c0.2,0.2,0.4,0.5,0.4,0.9
		c0,0.8-0.5,1.2-1.5,1.2C311.9,345.8,311.4,345.4,311.4,344.5z M314.3,354.8h-2.8v-8.2h2.8V354.8z"/>
	<path class="st2" d="M319.5,354.8h-2.8v-11.3h2.8V354.8z"/>
	<path class="st2" d="M324.8,354.8h-2.8v-11.3h2.8V354.8z"/>
	<path class="st2" d="M333.5,352.3c0,0.9-0.3,1.5-0.9,2c-0.6,0.4-1.5,0.7-2.6,0.7c-0.6,0-1.1,0-1.6-0.1c-0.4-0.1-0.9-0.2-1.4-0.4
		v-2.3c0.4,0.2,0.9,0.4,1.4,0.5c0.5,0.1,1,0.2,1.4,0.2c0.6,0,0.9-0.1,0.9-0.4c0-0.1-0.1-0.3-0.3-0.4s-0.7-0.3-1.5-0.7
		c-0.8-0.3-1.3-0.7-1.6-1.1c-0.3-0.4-0.4-0.9-0.4-1.5c0-0.8,0.3-1.4,0.9-1.8s1.4-0.6,2.5-0.6c0.5,0,1,0.1,1.5,0.2
		c0.5,0.1,1,0.3,1.5,0.5l-0.8,1.8c-0.4-0.2-0.8-0.3-1.2-0.4s-0.8-0.2-1-0.2c-0.5,0-0.7,0.1-0.7,0.3c0,0.1,0.1,0.3,0.2,0.4
		s0.6,0.3,1.4,0.6c0.6,0.2,1,0.5,1.3,0.7c0.3,0.2,0.5,0.5,0.6,0.8C333.4,351.4,333.5,351.8,333.5,352.3z"/>
</g>
<g>
	<circle class="st0" cx="196.3" cy="181.8" r="88.5"/>
</g>
<g>
	<circle class="st3" cx="196.3" cy="181.8" r="78.7"/>
</g>
<g>
	<polygon class="st2" points="194.3,240.3 190.8,238.1 187.4,242.7 188.3,245.4 193.7,247.4 198.6,241.8 198.6,236.5 203.1,233.2 
		206.9,233.2 212.6,235.1 217.9,231.9 220.4,231.9 224,228.5 223.1,227.1 221,227.1 222.5,225.5 225.9,225.5 232,230.5 237.2,225.5 
		238.4,222.5 240.9,220.2 243.1,221.1 247.1,219 245.8,216 247.1,212.3 243.3,203.7 243.3,200.4 244.6,194.5 244.8,187.7 
		243.4,184.3 242.4,181.6 240.6,172.3 242.4,169 241.6,167.1 242.8,163.8 245.2,161.4 247.7,153.3 256.9,148.4 261.2,148.4 
		263.3,153 266.6,153.6 269.8,151.8 268.6,150.8 268.6,149.7 273.8,144.5 273.8,143.5 274.6,142.6 275.6,139 278.1,134.6 
		284.2,132.7 290.4,134.6 295,132.7 298.1,132.7 308.2,125.4 309.7,118.9 310.4,114.8 308.9,114.3 309.1,117.3 308.2,116.8 
		306.4,116.7 305.5,114.3 315.3,105.4 330.6,97.3 334.9,95.3 337.2,91.8 340.6,88.9 340.6,87.4 344.8,83.9 345.5,81.7 354.4,76.9 
		356.1,75.2 357.6,75.2 362.5,72.1 362.5,70.6 368.9,65.1 369.3,63.1 371.1,62.1 372.7,59.1 374.1,58.7 375.6,55.6 381.3,47.9 
		375.1,45.2 370.3,50.1 370.3,52.3 366.2,56.3 360.7,57.2 357.2,55.9 354.7,57.4 351.9,55.9 351.7,50.4 350.4,49 350.1,50.4 
		346.2,45.2 344.7,45.7 344.7,46.8 343.7,48.8 340.6,50.5 338.4,49.3 337,50.1 337.3,52 338.9,52.5 339.9,54.2 337.6,56.9 
		333.7,57.8 332.5,57 331.6,56.7 329,60.5 328.8,62.9 330.4,64.3 329.9,69.4 325.9,70.1 323.2,68.2 317,74.1 316,73.8 314.3,69 
		313.9,66.2 311.6,65.3 308.8,68.2 308.7,72.9 307.2,75.7 308.1,76.8 308.4,79.1 306.1,82.4 304.5,81.7 303.9,80.4 301.8,79.6 
		298.6,80.4 296.1,83.2 291.6,84.6 291.2,85.2 292.3,87.4 285.4,90.6 283.8,94.9 283.7,98.8 281.4,102.1 279.2,100.7 276.8,103.1 
		273.8,103 273.7,105.7 268.6,107.7 265.8,106.5 266.2,108.6 265.4,108.4 264,112.3 257.9,111.5 258.4,110.2 255.8,109 253.2,110.1 
		252.5,112.7 251.4,110.9 249.9,111.4 250.5,112.3 250.1,114.2 253.8,116 254,114.6 256.7,115.3 255.4,118.4 257.2,119.9 256,120.3 
		253.2,119.7 250.8,117.4 250.3,119.4 247.2,112.9 244.6,111.6 239.2,115.5 238.8,117 241.2,119 238,124 235.9,124.4 235.3,122.8 
		232.3,121.7 223.3,125.6 217.3,126.7 216,128.3 216.1,136.6 210.4,136.8 207.4,137.9 207.3,140.7 204.6,139 204.3,141.5 
		202.2,143.2 197.9,141.2 196.5,142.5 192.5,141.5 187.4,143.1 187.4,146.3 182.9,149.4 176.6,147.5 173.4,148.6 165.7,145.7 
		159.4,145.8 156.8,144.5 152.3,146.3 150.8,148.5 152.9,151.6 153.7,155 152.6,155.1 151.2,155.2 149.5,159.3 152.5,165 
		154.4,166.1 155.3,169.5 153.8,173.9 151.7,174.8 146.5,174.1 145.6,172.3 144.3,171.8 142.3,175.6 146,176.6 145.6,181.5 
		143.8,181.5 143,187.1 144.1,188.8 145.7,190.4 146.7,190.8 148.8,190.1 149.5,191.3 148.2,193.8 146.4,193.9 148.1,198.1 
		153,199.5 153.7,199 153.6,196.9 154.8,195.4 157.2,195.7 159.1,196.9 161.4,196.8 162.6,195.1 165.2,197.1 165.7,200.3 
		164.6,201.1 163.8,200.3 162.5,200.3 160.1,202 161.6,205.2 163.1,206.2 163.6,208.7 162,209.1 161,208.4 159.5,204.8 155,205.4 
		153.8,204.5 151.6,204.2 150.4,202.1 151.4,201.3 151,199.9 147.4,200.7 149.4,206.6 152.1,208.1 149.4,210.9 150.6,213.5 
		155.2,213 155.8,209.8 163.4,210.3 164,214.2 169.3,213.6 169.1,212.6 170.4,211.8 173.3,211.4 174.7,209.8 174.7,207.3 
		178.4,206.7 178.4,209.1 179.8,209.5 181.8,208.4 183.9,209.9 183.9,211.2 181.9,215.4 186.5,218.3 191.9,217.7 191,219.7 
		191.2,225.6 195.6,227.7 196.9,226.6 197.5,227.6 196.3,233 193.8,234.5 193.6,238 195.1,239.2 	"/>
</g>
</svg>
