<?xml version="1.0" encoding="utf-8"?>
<!-- Generator: Adobe Illustrator 22.0.1, SVG Export Plug-In . SVG Version: 6.00 Build 0)  -->
<svg version="1.1" id="Layer_1" xmlns="http://www.w3.org/2000/svg" xmlns:xlink="http://www.w3.org/1999/xlink" x="0px" y="0px"
	 viewBox="0 0 219 154.5" style="enable-background:new 0 0 219 154.5;" xml:space="preserve">
<style type="text/css">
	.st0{clip-path:url(#SVGID_2_);}
	.st1{fill:#929392;}
	.st2{fill:#D33257;}
	.st3{fill:#FFFFFF;}
</style>
<g>
	<g>
		<defs>
			<polygon id="SVGID_1_" points="5.8,128.7 20.3,123.1 44.7,89.8 71,115.1 97.2,97.8 117.8,128.7 123.9,128.7 143.6,37.8 78.5,-25 
				12.4,-25 -9.2,59.4 			"/>
		</defs>
		<clipPath id="SVGID_2_">
			<use xlink:href="#SVGID_1_"  style="overflow:visible;"/>
		</clipPath>
		<g class="st0">
			<polygon class="st1" points="5.8,128.7 123.9,128.7 102.8,57 82.7,95.9 45.7,4 			"/>
			<polygon class="st2" points="45.7,4 30.4,51.8 41,43.9 45.7,59.4 52.2,44.8 64.9,51.7 			"/>
			<polygon class="st2" points="92.8,76.4 102.8,57 109.7,80.4 101.3,74.4 			"/>
		</g>
	</g>
</g>
<g>
	<path class="st3" d="M94.5,11.9c7.5,0,14.5,1.4,21.1,4.3c6.6,2.8,12.3,6.7,17.2,11.7c4.9,4.9,8.7,10.7,11.6,17.2
		c2.8,6.5,4.3,13.5,4.3,21s-1.4,14.5-4.3,21.1c-2.8,6.6-6.7,12.3-11.6,17.3c-4.9,4.9-10.6,8.8-17.2,11.7c-6.6,2.8-13.6,4.3-21.1,4.3
		H63.1V11.9H94.5z M94.5,88.6c3.2,0,6.2-0.6,9-1.7s5.3-2.7,7.4-4.8c2.1-2,3.7-4.5,4.9-7.3c1.2-2.8,1.8-5.8,1.8-9
		c0-3.2-0.6-6.2-1.8-9c-1.2-2.8-2.8-5.2-4.9-7.3c-2.1-2-4.6-3.7-7.4-4.9s-5.9-1.8-9-1.8V88.6z"/>
</g>
<g>
	<path class="st3" d="M154.3,120.3v-15.6h61.9v15.6H154.3z"/>
</g>
<g>
	<path class="st2" d="M185.3,12.3c4-0.2,8,0,12,0.5s8,1.5,12.1,2.9c-0.2,1.3-0.2,2.2-0.2,2.8c0,0.6,0,1.5,0,2.8s0,3.1-0.1,5.7
		c-0.1,2.5-0.3,6.4-0.6,11.5c-2.4-1-5.2-1.9-8.4-2.7s-6.1-1.4-8.8-1.8c-1.5-0.2-3-0.1-4.4,0.1c-1.4,0.2-2.6,0.8-3.7,1.6
		c-0.8,0.8-1,1.7-0.4,2.6c0.6,0.9,1.3,1.6,2.1,2.2l13,4.2c2.7,0.8,5.2,2,7.5,3.5s4.2,3.3,5.9,5.3s3,4.2,3.9,6.7
		c0.9,2.4,1.4,5,1.4,7.7c0.1,4-0.6,7.6-1.9,10.9c-1.3,3.2-3.2,6-5.5,8.4c-2.4,2.4-5.2,4.3-8.5,5.8s-6.9,2.4-10.7,2.9
		c-0.5,0.1-1.3,0.1-2.4,0.2c-1.1,0-2.2,0.1-3.4,0.1c-2.3,0.1-4.5,0-6.6-0.1c-2.1-0.2-4.1-0.4-5.8-0.8c-2-0.5-4.2-1-6.3-1.7
		c-2.2-0.7-4.9-1.7-8.4-3l5.5-24.5c1.1,0.4,2.3,0.8,3.4,1.2c1.1,0.4,2.3,0.9,3.4,1.3l5.3,1.9c1.7,0.7,3.5,1.3,5.2,1.9
		s3.5,0.9,5.5,0.9c1.2-0.1,2.2-0.4,3.1-0.9c0.8-0.5,1.3-1.4,1.5-2.7c0-0.9-0.3-1.7-0.8-2.4c-0.5-0.7-1.2-1.3-2-1.8s-1.6-0.9-2.6-1.3
		c-0.9-0.3-1.8-0.6-2.6-0.9c-3.6-0.8-6.8-2.2-9.8-4.2c-3-1.9-5.5-4.2-7.7-6.7s-3.9-5.3-5.1-8.2c-1.3-3-1.9-5.9-1.9-8.9
		c0-2.4,0.3-4.8,1-7.1s1.8-4.4,3.2-6.3s3.3-3.6,5.6-5.1c2.2-1.5,4.9-2.6,8-3.4C178.9,12.8,182.2,12.3,185.3,12.3z"/>
</g>
<g>
	<path class="st3" d="M3.2,143c0-0.8,0-2,0-3.6s0-2.8,0-3.6c1.8-0.3,3.5-0.4,4.8-0.4c0.9,0,1.6,0.1,2.3,0.2c0.7,0.2,1.3,0.4,1.9,0.8
		c0.6,0.4,1,0.8,1.4,1.4c0.4,0.6,0.7,1.3,0.9,2.2c0.2,0.9,0.3,1.9,0.3,3c0,0.7,0,1.3-0.1,1.9c-0.1,0.6-0.2,1.1-0.3,1.6
		c-0.1,0.5-0.3,0.9-0.5,1.3c-0.2,0.4-0.4,0.7-0.6,1s-0.5,0.5-0.8,0.7s-0.6,0.4-0.9,0.5c-0.3,0.1-0.7,0.2-1.1,0.3
		c-0.4,0.1-0.8,0.1-1.2,0.2c-0.4,0-0.9,0.1-1.3,0.1c-0.2,0-0.3,0-0.5,0s-0.4,0-0.5,0s-0.3,0-0.6,0c-0.2,0-0.4,0-0.5,0s-0.3,0-0.6,0
		s-0.5,0-0.6,0s-0.3,0-0.7-0.1c-0.4,0-0.6,0-0.6-0.1c-0.1,0-0.1,0-0.2-0.1c0,0-0.1-0.1-0.1-0.2c0-0.8,0-1.9,0-3.4S3.2,143.8,3.2,143
		z M8.1,143c0,1,0,2.1,0,3.3h0.4c0.1,0,0.2,0,0.3,0s0.2-0.1,0.3-0.2s0.2-0.2,0.2-0.3c0.1-0.2,0.1-0.3,0.2-0.6c0-0.2,0.1-0.5,0.1-0.9
		s0-0.8,0-1.3c0-0.6,0-1.1-0.1-1.5c0-0.4-0.1-0.7-0.1-1c-0.1-0.2-0.1-0.4-0.2-0.5c-0.1-0.1-0.2-0.2-0.3-0.3c-0.1,0-0.2-0.1-0.4-0.1
		H8.1C8.1,141.1,8.1,142.2,8.1,143z"/>
	<path class="st3" d="M17.6,143c0-2.3,0-4.8,0.1-7.5c0.8,0,1.5-0.1,2.2-0.1s1.5,0,2.5,0.1c0.1,0,0.1,0,0.2,0.1c0,0,0.1,0.1,0.1,0.2
		c0.1,3.1,0.1,5.5,0.1,7.2c0,2.3,0,4.8-0.1,7.5c-0.8,0-1.5,0.1-2.2,0.1s-1.5,0-2.5-0.1c-0.1,0-0.1,0-0.2-0.1c0,0-0.1-0.1-0.1-0.2
		C17.6,147.1,17.6,144.7,17.6,143z"/>
	<path class="st3" d="M25.4,143c0-1.2,0.1-2.2,0.3-3c0.2-0.9,0.5-1.6,0.9-2.2c0.4-0.6,0.9-1,1.4-1.4c0.6-0.4,1.2-0.6,1.9-0.8
		s1.5-0.2,2.3-0.2c1.2,0,2.7,0.1,4.4,0.4l-0.5,3.9h-4.4c-0.1,0-0.3,0-0.4,0.1c-0.1,0-0.2,0.1-0.3,0.2c-0.1,0.1-0.2,0.3-0.2,0.5
		c-0.1,0.2-0.1,0.6-0.1,1s-0.1,0.9-0.1,1.5c0,0.5,0,0.9,0,1.3c0,0.4,0.1,0.7,0.1,0.9c0.1,0.2,0.1,0.4,0.2,0.6
		c0.1,0.2,0.2,0.3,0.3,0.3c0.1,0.1,0.2,0.1,0.3,0.2c0.1,0,0.2,0,0.3,0h0.5c0-0.8,0-2.1-0.1-3.8c0.7,0,1.4,0,2,0s1.3,0,2.2,0
		c0.1,0,0.1,0,0.2,0.1c0,0,0.1,0.1,0.1,0.2c0.1,1.5,0.1,2.7,0.1,3.5c0,1.4,0,2.6-0.1,3.8c-0.7,0.1-1.2,0.2-1.6,0.3
		c-0.3,0.1-0.8,0.1-1.3,0.1s-1,0.1-1.6,0.1c-0.5,0-0.9,0-1.3-0.1c-0.4,0-0.8-0.1-1.2-0.2c-0.4-0.1-0.8-0.2-1.1-0.3
		c-0.3-0.1-0.6-0.3-0.9-0.5s-0.6-0.5-0.8-0.7c-0.2-0.3-0.4-0.6-0.6-1s-0.3-0.8-0.5-1.3c-0.1-0.5-0.2-1-0.3-1.6
		C25.5,144.3,25.4,143.7,25.4,143z"/>
	<path class="st3" d="M39.8,143c0-2.3,0-4.8,0.1-7.5c0.8,0,1.5-0.1,2.2-0.1s1.5,0,2.5,0.1c0.1,0,0.1,0,0.2,0.1c0,0,0.1,0.1,0.1,0.2
		c0.1,3.1,0.1,5.5,0.1,7.2c0,2.3,0,4.8-0.1,7.5c-0.8,0-1.5,0.1-2.2,0.1s-1.5,0-2.5-0.1c-0.1,0-0.1,0-0.2-0.1c0,0-0.1-0.1-0.1-0.2
		C39.8,147.1,39.8,144.7,39.8,143z"/>
	<path class="st3" d="M47.4,137.4c0-0.7,0-1.3,0-1.9c0.8,0,2.7-0.1,5.8-0.1c2.4,0,4.1,0,5.1,0.1c0.1,0,0.1,0,0.2,0.1
		s0.1,0.1,0.1,0.2c0,0.9,0,1.6,0,2.1c0,0.7,0,1.3,0,1.9c-0.3,0-1.3,0-3,0c0,0.9,0,2,0,3.2c0,2.3,0,4.8-0.1,7.5
		c-0.8,0-1.5,0.1-2.2,0.1s-1.5,0-2.5-0.1c-0.1,0-0.1,0-0.2-0.1c0,0-0.1-0.1-0.1-0.2c-0.1-3.1-0.1-5.5-0.1-7.2c0-0.8,0-1.8,0-3.2
		c-1,0-1.9,0-2.8-0.1c-0.1,0-0.1,0-0.2-0.1s-0.1-0.1-0.1-0.2C47.4,138.5,47.4,137.8,47.4,137.4z"/>
	<path class="st3" d="M59.6,150.3c0-0.1,0-0.3,0.1-0.8c0.2-1.4,0.5-2.8,0.8-4.2c0.3-1.5,0.6-3.3,1.1-5.4c0.4-2.2,0.7-3.6,0.9-4.3
		c0.8,0,2-0.1,3.4-0.1s2.5,0,3.5,0.1c0.1,0,0.1,0,0.2,0.1c0.1,0,0.1,0.1,0.1,0.2c0.2,0.9,0.5,2.4,0.9,4.5s0.8,3.9,1.1,5.6
		c0.3,1.6,0.6,3.1,0.8,4.6c-0.8,0-1.5,0.1-2.2,0.1c-1.1,0-1.9,0-2.4-0.1c-0.1,0-0.1,0-0.2-0.1c-0.1,0-0.1-0.1-0.1-0.2
		c-0.2-1-0.3-1.8-0.5-2.5h-2.3c-0.1,0.9-0.3,1.8-0.5,2.7c-0.8,0-1.5,0.1-2.1,0.1c-0.7,0-1.5,0-2.5-0.1c-0.1,0-0.1,0-0.1-0.1
		C59.6,150.4,59.6,150.3,59.6,150.3z M65.3,144.5h1.4c-0.1-0.7-0.2-1.6-0.4-2.9c-0.2-1.3-0.3-2.1-0.4-2.7c-0.1,0.7-0.2,1.6-0.3,2.9
		C65.4,143.1,65.3,144,65.3,144.5z"/>
	<path class="st3" d="M74.8,143c0-2.3,0-4.8,0.1-7.5c0.8,0,1.5-0.1,2.2-0.1s1.5,0,2.5,0.1c0.1,0,0.1,0,0.2,0.1c0,0,0.1,0.1,0.1,0.2
		c0.1,3.1,0.1,5.5,0.1,7.2c0,1.1,0,2.2,0,3.2h0.1c1.5,0,2.8,0,3.8,0.1c0.1,0,0.1,0,0.2,0.1c0,0,0.1,0.1,0.1,0.2c0,1,0,1.7,0,2.1
		c0,0.7,0,1.3,0,1.8c-0.8,0-2,0.1-3.7,0.1c-0.4,0-1.3,0-2.6,0c-1.3,0-2.2,0-2.7-0.1c-0.1,0-0.1,0-0.2-0.1c0,0-0.1-0.1-0.1-0.2
		C74.8,147.1,74.8,144.7,74.8,143z"/>
	<path class="st3" d="M94.9,150.3l0.6-4.5c1.8,0.6,3.3,0.9,4.4,0.9c0.4,0,0.8-0.1,1-0.3s0.3-0.4,0.3-0.6c0-0.1,0-0.2,0-0.2
		c0-0.1-0.1-0.1-0.2-0.2c-0.1-0.1-0.2-0.1-0.2-0.2c-0.1,0-0.2-0.1-0.3-0.1c-0.2-0.1-0.3-0.1-0.4-0.1s-0.3-0.1-0.5-0.1
		c-0.4-0.1-0.7-0.2-0.9-0.3c-0.2-0.1-0.5-0.2-0.9-0.3c-0.4-0.2-0.7-0.3-0.9-0.5c-0.2-0.2-0.5-0.4-0.8-0.6c-0.3-0.3-0.5-0.6-0.7-0.9
		c-0.2-0.3-0.3-0.7-0.4-1.1c-0.1-0.4-0.2-0.9-0.2-1.5s0.1-1.1,0.2-1.5s0.2-0.8,0.4-1.1c0.2-0.3,0.4-0.6,0.7-0.8
		c0.3-0.2,0.6-0.4,0.9-0.5s0.7-0.2,1.1-0.3s0.9-0.1,1.2-0.1c0.4,0,0.9,0,1.4,0c1.4,0,3,0.2,4.8,0.5l-0.6,4.1
		c-0.6-0.3-1.4-0.5-2.2-0.7c-0.8-0.2-1.6-0.3-2.3-0.3c-0.4,0-0.7,0.1-0.9,0.2c-0.2,0.1-0.3,0.3-0.3,0.5c0,0.1,0,0.1,0.1,0.2
		c0,0.1,0.1,0.1,0.2,0.2s0.2,0.1,0.3,0.2c0.1,0,0.2,0.1,0.4,0.2c0.2,0.1,0.3,0.1,0.4,0.1s0.3,0.1,0.5,0.1c1,0.3,1.8,0.6,2.3,0.8
		c1.4,0.6,2.2,1.5,2.6,2.7c0.1,0.5,0.2,1,0.2,1.5c0,0.6-0.1,1.1-0.2,1.5c-0.1,0.5-0.3,0.9-0.5,1.2s-0.4,0.6-0.7,0.9
		c-0.3,0.3-0.6,0.5-0.9,0.6s-0.7,0.3-1.1,0.4c-0.4,0.1-0.8,0.2-1.3,0.2c-0.4,0-0.9,0.1-1.4,0.1C98.4,150.6,96.7,150.5,94.9,150.3z"
		/>
	<path class="st3" d="M108.4,143.1c0-2.4,0-4.9,0.1-7.5c0.8,0,1.5-0.1,2.2-0.1s1.5,0,2.5,0.1c0.1,0,0.1,0,0.2,0.1
		c0,0,0.1,0.1,0.1,0.2c0.1,3.1,0.1,5.8,0.1,8.1c0,0.5,0,1,0.1,1.3c0,0.3,0.1,0.6,0.2,0.8s0.2,0.3,0.3,0.4c0.1,0.1,0.3,0.1,0.4,0.1
		c0.2,0,0.4-0.1,0.6-0.2c0.1-0.1,0.2-0.4,0.3-0.7c0.1-0.4,0.1-0.9,0.1-1.7c0-2.9,0-5.6,0.1-8.3c0.8,0,1.5-0.1,2.2-0.1s1.5,0,2.5,0.1
		c0.1,0,0.1,0,0.2,0.1c0,0,0.1,0.1,0.1,0.2c0.1,3.1,0.1,5.5,0.1,7.3c0,1.1-0.1,2-0.2,2.8c-0.2,0.8-0.4,1.5-0.7,2.1
		c-0.3,0.6-0.7,1.1-1.1,1.5c-0.5,0.4-1,0.7-1.5,0.9c-0.6,0.2-1.2,0.3-1.9,0.3c-0.6,0-1.1,0-1.6-0.1c-0.5,0-0.9-0.1-1.4-0.2
		c-0.4-0.1-0.8-0.3-1.2-0.5c-0.3-0.2-0.6-0.4-0.9-0.7s-0.5-0.6-0.7-1s-0.4-0.8-0.5-1.3s-0.3-1.1-0.3-1.7
		C108.4,144.6,108.4,143.9,108.4,143.1z"/>
	<path class="st3" d="M123.4,143c0-2.3,0-4.8,0.1-7.5c0.8,0,1.5-0.1,2.1-0.1c0.7,0,1.4,0,2.1,0.1c0.1,0,0.2,0.1,0.3,0.2l3.1,6.4
		l3.1-6.4c0.1-0.2,0.2-0.2,0.3-0.2c0.5,0,1.1-0.1,1.7-0.1c0.7,0,1.5,0,2.3,0.1c0.1,0,0.1,0,0.2,0.1c0,0,0.1,0.1,0.1,0.2
		c0.1,3.1,0.1,5.5,0.1,7.2c0,2.3,0,4.8-0.1,7.5c-0.7,0-1.4,0.1-1.9,0.1s-1.3,0-2.3-0.1c-0.1,0-0.1,0-0.2-0.1c0,0-0.1-0.1-0.1-0.2
		c0-0.5,0-1.2-0.1-2.1c0-0.9,0-1.8-0.1-2.5c0-0.8,0-1.5,0-2.2l-2.8,5.8H131h-0.2l-2.7-5.5l0.1,6.7c-0.8,0-1.5,0.1-2.1,0.1
		s-1.4,0-2.4-0.1c-0.1,0-0.1,0-0.2-0.1c0,0-0.1-0.1-0.1-0.2C123.4,147.1,123.4,144.7,123.4,143z"/>
	<path class="st3" d="M142.1,143c0-2.3,0-4.8,0.1-7.5c0.8,0,1.5-0.1,2.1-0.1c0.7,0,1.4,0,2.1,0.1c0.1,0,0.2,0.1,0.3,0.2l3.1,6.4
		l3.1-6.4c0.1-0.2,0.2-0.2,0.3-0.2c0.5,0,1.1-0.1,1.7-0.1c0.7,0,1.5,0,2.3,0.1c0.1,0,0.1,0,0.2,0.1c0,0,0.1,0.1,0.1,0.2
		c0.1,3.1,0.1,5.5,0.1,7.2c0,2.3,0,4.8-0.1,7.5c-0.7,0-1.4,0.1-1.9,0.1s-1.3,0-2.3-0.1c-0.1,0-0.1,0-0.2-0.1c0,0-0.1-0.1-0.1-0.2
		c0-0.5,0-1.2-0.1-2.1c0-0.9,0-1.8-0.1-2.5c0-0.8,0-1.5,0-2.2l-2.8,5.8h-0.3h-0.2l-2.7-5.5l0.1,6.7c-0.8,0-1.5,0.1-2.1,0.1
		s-1.4,0-2.4-0.1c-0.1,0-0.1,0-0.2-0.1c0,0-0.1-0.1-0.1-0.2C142.1,147.1,142.1,144.7,142.1,143z"/>
	<path class="st3" d="M160.8,143c0-2.3,0-4.8,0.1-7.5c0.8,0,1.5-0.1,2.2-0.1s1.5,0,2.5,0.1c0.1,0,0.1,0,0.2,0.1s0.1,0.1,0.1,0.2
		c0.1,3.1,0.1,5.5,0.1,7.2c0,2.3,0,4.8-0.1,7.5c-0.8,0-1.5,0.1-2.2,0.1s-1.5,0-2.5-0.1c-0.1,0-0.1,0-0.2-0.1c0,0-0.1-0.1-0.1-0.2
		C160.8,147.1,160.8,144.7,160.8,143z"/>
	<path class="st3" d="M168.4,137.4c0-0.7,0-1.3,0-1.9c0.8,0,2.7-0.1,5.8-0.1c2.4,0,4.1,0,5.1,0.1c0.1,0,0.1,0,0.2,0.1
		s0.1,0.1,0.1,0.2c0,0.9,0,1.6,0,2.1c0,0.7,0,1.3,0,1.9c-0.3,0-1.3,0-3,0c0,0.9,0,2,0,3.2c0,2.3,0,4.8-0.1,7.5
		c-0.8,0-1.5,0.1-2.2,0.1s-1.5,0-2.5-0.1c-0.1,0-0.1,0-0.2-0.1c0,0-0.1-0.1-0.1-0.2c-0.1-3.1-0.1-5.5-0.1-7.2c0-0.8,0-1.8,0-3.2
		c-1,0-1.9,0-2.8-0.1c-0.1,0-0.1,0-0.2-0.1c0,0-0.1-0.1-0.1-0.2C168.4,138.5,168.4,137.8,168.4,137.4z"/>
	<path class="st3" d="M190.4,138.1c0-0.3,0-0.7,0-1.2c0-0.6,0-1,0-1.3c0-0.1,0-0.1,0.1-0.2c0,0,0.1-0.1,0.2-0.1c0.2,0,0.8,0,1.7,0
		c1,0,1.6,0,1.8,0c0.1,0,0.1,0,0.2,0.1c0,0,0.1,0.1,0.1,0.2c0,0.3,0,0.7,0,1.2s0,0.9,0,1.2c-0.1,0.5-0.2,1.2-0.5,2.2s-0.5,1.6-0.6,2
		c-0.2,0-0.6,0-1,0c-0.5,0-1,0-1.4,0c0-0.2-0.1-0.8-0.2-1.8C190.6,139.4,190.5,138.7,190.4,138.1z"/>
	<path class="st3" d="M196.7,139.5c0-1.2,0-2.4,0.1-3.5c0.4-0.1,1-0.2,1.6-0.3c0.7-0.1,1.2-0.2,1.6-0.2c0.6,0,1.4,0,2.4,0.1
		c0.1,0,0.1,0,0.2,0.1s0.1,0.1,0.1,0.2c0.1,3.1,0.1,5.5,0.1,7.2c0,2.3,0,4.8-0.1,7.5c-0.8,0-1.5,0.1-2.2,0.1s-1.5,0-2.5-0.1
		c-0.1,0-0.1,0-0.2-0.1c0,0-0.1-0.1-0.1-0.2c-0.1-3.1-0.1-5.5-0.1-7.2c0-1.2,0-2.4,0-3.5L196.7,139.5z"/>
	<path class="st3" d="M205.1,137.4c0-0.7,0-1.3,0-1.9c0.8,0,2.9-0.1,6.4-0.1c1.9,0,3.3,0,4.3,0.1c0.1,0,0.1,0,0.2,0.1
		c0,0,0.1,0.1,0.1,0.2c0,0.4,0,0.8,0,1.2s0,0.8,0,1.3c-0.1,0.1-0.2,0.4-0.6,1c-0.3,0.6-0.6,1.2-0.9,1.7c-0.3,0.6-0.6,1.2-1,1.9
		c-0.3,0.7-0.6,1.4-0.8,2s-0.3,1.1-0.3,1.5v1.9c0,0.7,0,1.4,0,2.1c-0.7,0-1.6,0.1-2.5,0.1s-1.9,0-2.9-0.1c-0.1,0-0.1,0-0.2-0.1
		c0,0-0.1-0.1-0.1-0.2v-2.9c0.3-1.2,0.8-2.4,1.4-3.6c0.6-1.2,1.4-2.5,2.3-4c-2.7,0-4.5-0.1-5.3-0.1c-0.1,0-0.1,0-0.2-0.1
		c0,0-0.1-0.1-0.1-0.2C205.1,138.5,205.1,137.8,205.1,137.4z"/>
</g>
</svg>
