<?xml version="1.0" encoding="utf-8"?>
<!-- Generator: Adobe Illustrator 22.0.1, SVG Export Plug-In . SVG Version: 6.00 Build 0)  -->
<svg version="1.1" id="Layer_1" xmlns="http://www.w3.org/2000/svg" xmlns:xlink="http://www.w3.org/1999/xlink" x="0px" y="0px"
	 viewBox="0 0 612 214" style="enable-background:new 0 0 612 214;" xml:space="preserve">
<style type="text/css">
	.st0{fill:#00AAE7;}
	.st1{fill:#FDFDFE;}
</style>
<g>
	<g>
		<polygon class="st0" points="452.5,174.8 465.6,174.8 465.6,168.5 452.5,168.5 452.5,162.8 466.2,162.8 466.2,156.6 443.1,156.6 
			443.1,187.7 466.6,187.7 466.6,181.4 452.5,181.4 		"/>
		<polygon class="st0" points="284.2,174.8 297.3,174.8 297.3,168.5 284.2,168.5 284.2,162.8 297.9,162.8 297.9,156.6 274.8,156.6 
			274.8,187.7 298.3,187.7 298.3,181.4 284.2,181.4 		"/>
		<polygon class="st0" points="359.7,166.4 352.5,156.6 342.8,156.6 355.2,173.6 355.2,187.7 364.6,187.7 364.6,173.4 376.8,156.6 
			366.8,156.6 		"/>
		<path class="st0" d="M335.4,171.1c-1.4-0.9-3.4-1.9-5.8-3c-1.3-0.6-2.3-1.2-2.8-1.6c-0.5-0.5-0.8-1-0.8-1.6c0-0.7,0.3-1.2,0.8-1.7
			c0.5-0.4,1.4-0.7,2.5-0.7c1.8,0,3.5,0.4,5,1.1c1.6,0.7,3,1.5,4.3,2.4v-7.3c-0.4-0.2-1-0.6-2-1c-1-0.4-2.2-0.8-3.7-1.1
			c-1.5-0.3-3.1-0.5-4.8-0.5c-2.4,0-4.5,0.4-6.2,1.2c-1.7,0.8-2.9,1.9-3.8,3.2c-0.8,1.4-1.2,2.9-1.2,4.6c0,1.7,0.4,3.2,1.2,4.5
			c0.8,1.3,1.9,2.3,3.2,3.2c1.3,0.8,2.8,1.6,4.5,2.3c1.5,0.6,2.7,1.2,3.5,1.8c0.8,0.6,1.2,1.3,1.2,2.1c0,0.5-0.2,1-0.7,1.5
			c-0.5,0.5-1.5,0.8-3.1,0.8c-1.7,0-3.4-0.3-4.9-1c-1.5-0.6-3.1-1.4-4.6-2.4v7.6c1.7,0.7,3.3,1.3,4.8,1.7c1.6,0.4,2.8,0.6,3.7,0.7
			c0.9,0.1,1.7,0.1,2.4,0.1c2.3,0,4.3-0.4,6.1-1.1c1.8-0.8,3.2-1.8,4.2-3.3c1-1.4,1.5-3.1,1.5-5.1c0-1.7-0.4-3.2-1.2-4.4
			C338,173.1,336.8,172,335.4,171.1z"/>
		<path class="st0" d="M396.8,171.1c-1.4-0.9-3.4-1.9-5.8-3c-1.4-0.6-2.3-1.2-2.8-1.6c-0.5-0.5-0.8-1-0.8-1.6c0-0.7,0.3-1.2,0.8-1.7
			c0.5-0.4,1.4-0.7,2.5-0.7c1.8,0,3.5,0.4,5,1.1c1.6,0.7,3,1.5,4.3,2.4v-7.3c-0.4-0.2-1-0.6-2-1c-1-0.4-2.2-0.8-3.7-1.1
			c-1.5-0.3-3.1-0.5-4.8-0.5c-2.4,0-4.5,0.4-6.2,1.2c-1.7,0.8-2.9,1.9-3.8,3.2c-0.8,1.4-1.2,2.9-1.2,4.6c0,1.7,0.4,3.2,1.2,4.5
			c0.8,1.3,1.9,2.3,3.2,3.2c1.3,0.8,2.8,1.6,4.5,2.3c1.5,0.6,2.7,1.2,3.5,1.8c0.8,0.6,1.2,1.3,1.2,2.1c0,0.5-0.2,1-0.7,1.5
			c-0.5,0.5-1.5,0.8-3.1,0.8c-1.7,0-3.4-0.3-4.9-1c-1.5-0.6-3.1-1.4-4.6-2.4v7.6c1.7,0.7,3.3,1.3,4.8,1.7c1.5,0.4,2.8,0.6,3.7,0.7
			c0.9,0.1,1.7,0.1,2.4,0.1c2.3,0,4.3-0.4,6.1-1.1c1.8-0.8,3.2-1.8,4.2-3.3c1-1.4,1.5-3.1,1.5-5.1c0-1.7-0.4-3.2-1.2-4.4
			C399.4,173.1,398.2,172,396.8,171.1z"/>
		<path class="st0" d="M537.5,174.3c-0.8-1.2-1.9-2.2-3.4-3.1c-1.4-0.9-3.4-1.9-5.8-3c-1.4-0.6-2.3-1.2-2.8-1.6
			c-0.5-0.5-0.8-1-0.8-1.6c0-0.7,0.3-1.2,0.8-1.7c0.5-0.4,1.4-0.7,2.5-0.7c1.8,0,3.5,0.4,5,1.1c1.6,0.7,3,1.5,4.3,2.4v-7.3
			c-0.4-0.2-1-0.6-2-1c-1-0.4-2.2-0.8-3.7-1.1c-1.5-0.3-3.1-0.5-4.8-0.5c-2.4,0-4.5,0.4-6.2,1.2c-1.7,0.8-3,1.9-3.8,3.2
			c-0.8,1.4-1.2,2.9-1.2,4.6c0,1.7,0.4,3.2,1.2,4.5c0.8,1.3,1.9,2.3,3.2,3.2c1.3,0.8,2.8,1.6,4.5,2.3c1.5,0.6,2.7,1.2,3.5,1.8
			c0.8,0.6,1.2,1.3,1.2,2.1c0,0.5-0.2,1-0.7,1.5c-0.5,0.5-1.5,0.8-3.1,0.8c-1.7,0-3.4-0.3-4.9-1c-1.5-0.6-3.1-1.4-4.6-2.4v7.6
			c1.7,0.7,3.3,1.3,4.8,1.7c1.5,0.4,2.8,0.6,3.7,0.7c0.9,0.1,1.7,0.1,2.4,0.1c2.3,0,4.3-0.4,6.1-1.1c1.8-0.8,3.2-1.8,4.2-3.3
			c1-1.4,1.5-3.1,1.5-5.1C538.8,176.9,538.3,175.4,537.5,174.3z"/>
		<path class="st0" d="M35.8,171.1c-1.4-0.9-3.4-1.9-5.8-3c-1.3-0.6-2.3-1.2-2.8-1.6c-0.5-0.5-0.8-1-0.8-1.6c0-0.7,0.3-1.2,0.8-1.7
			c0.5-0.4,1.4-0.7,2.5-0.7c1.8,0,3.5,0.4,5,1.1c1.6,0.7,3,1.5,4.3,2.4v-7.3c-0.4-0.2-1-0.6-2-1c-1-0.4-2.2-0.8-3.7-1.1
			c-1.5-0.3-3.1-0.5-4.8-0.5c-2.4,0-4.5,0.4-6.2,1.2c-1.7,0.8-3,1.9-3.8,3.2c-0.8,1.4-1.2,2.9-1.2,4.6c0,1.7,0.4,3.2,1.2,4.5
			c0.8,1.3,1.9,2.3,3.2,3.2c1.3,0.8,2.8,1.6,4.5,2.3c1.5,0.6,2.7,1.2,3.5,1.8c0.8,0.6,1.2,1.3,1.2,2.1c0,0.5-0.2,1-0.7,1.5
			c-0.5,0.5-1.5,0.8-3.1,0.8c-1.7,0-3.4-0.3-4.9-1c-1.5-0.6-3.1-1.4-4.6-2.4v7.6c1.7,0.7,3.3,1.3,4.8,1.7c1.6,0.4,2.8,0.6,3.7,0.7
			c0.9,0.1,1.7,0.1,2.4,0.1c2.3,0,4.4-0.4,6.1-1.1c1.8-0.8,3.2-1.8,4.2-3.3c1-1.4,1.5-3.1,1.5-5.1c0-1.7-0.4-3.2-1.2-4.4
			C38.4,173.1,37.3,172,35.8,171.1z"/>
		<polygon class="st0" points="405.4,164.1 416.9,164.1 416.9,187.7 426.2,187.7 426.2,164.1 437.6,164.1 437.6,156.6 405.4,156.6 
					"/>
		<polygon class="st0" points="491,168.3 481.4,156.6 472.9,156.6 472.9,187.7 482,187.7 482,169.7 490.5,180.1 491.3,180.1 
			499.7,169.7 499.7,187.7 509.1,187.7 509.1,156.6 500.6,156.6 		"/>
		<polygon class="st0" points="112.3,164.1 123.7,164.1 123.7,187.7 133,187.7 133,164.1 144.5,164.1 144.5,156.6 112.3,156.6 		"/>
		<polygon class="st0" points="86,187.7 95.4,187.7 95.4,175.1 108.3,175.1 108.3,168.8 95.4,168.8 95.4,162.8 108.3,162.8 
			108.3,156.6 86,156.6 		"/>
		<path class="st0" d="M75.7,160.9c-1.5-1.5-3.3-2.6-5.6-3.5c-2.3-0.9-4.8-1.3-7.7-1.3c-3.8,0-7.1,0.7-9.8,2.2
			c-2.7,1.5-4.7,3.5-5.9,5.9c-1.3,2.4-1.9,5.1-1.9,7.9c0,2.8,0.6,5.4,1.9,7.8c1.3,2.4,3.3,4.4,5.9,5.9c2.7,1.5,5.9,2.2,9.8,2.2
			c3.8,0,7-0.7,9.7-2.2c2.6-1.4,4.6-3.4,6-5.8c1.3-2.4,2-5.1,2-8c0-2.1-0.4-4.2-1.1-6.1C78.3,164.1,77.2,162.4,75.7,160.9z
			 M69.6,176.3c-0.6,1.2-1.6,2.1-2.8,2.8c-1.2,0.7-2.7,1-4.4,1c-2.5,0-4.5-0.7-5.9-2.2c-1.5-1.5-2.2-3.4-2.2-5.8
			c0-2.4,0.7-4.3,2.2-5.8c1.4-1.5,3.4-2.2,5.9-2.2c1.3,0,2.5,0.2,3.5,0.6c1,0.4,1.9,1,2.6,1.7c0.7,0.7,1.2,1.6,1.6,2.5
			c0.3,1,0.5,2,0.5,3.2C70.6,173.7,70.2,175.1,69.6,176.3z"/>
		<polygon class="st0" points="190.8,156.6 184,173.8 176.7,156.6 170,156.6 162.6,173.8 156.1,156.6 146.4,156.6 159.6,188.1 
			165.1,188.1 173.4,169.8 181.5,188.1 186.9,188.1 200.4,156.6 		"/>
		<path class="st0" d="M212.2,156.6l-13.8,31.1h9.6l2.6-6.3h13.5l2.5,6.3h9.6l-13.7-31.1H212.2z M212.8,176l4.6-11.4L222,176H212.8z
			"/>
		<path class="st0" d="M264.7,176.1c-0.6-0.8-1.5-1.5-2.5-2.1c0.8-0.4,1.6-0.9,2.3-1.4c0.7-0.5,1.3-1.3,1.9-2.4
			c0.6-1.1,0.9-2.4,0.9-4c0-1.3-0.4-2.8-1.1-4.3c-0.7-1.5-1.9-2.8-3.6-3.8c-1.6-1-3.8-1.6-6.3-1.6h-16v31.1h9.4v-12.2h1.1
			c1.1,0,2,0.1,2.6,0.4c0.7,0.3,1.4,0.9,2.1,1.8c0.7,0.9,1.5,2.4,2.4,4.4l2.4,5.5h10.1l-3.1-6.8
			C266.3,178.5,265.4,176.9,264.7,176.1z M256.5,169.3c-0.8,0.5-2.4,0.7-4.7,0.7h-2v-7.5h2c2.1,0,3.7,0.3,4.6,0.9
			c0.9,0.6,1.4,1.6,1.4,3C257.8,167.8,257.4,168.8,256.5,169.3z"/>
	</g>
	<g>
		<path class="st1" d="M110.8,60.4c-6.4,0-12.8,0-19.2,0c-1.3,0-2.2,0.5-2.9,1.4c-7.1,8.7-14.2,17.3-21.2,26c-1.2,1.4-1.7,1.4-2.8,0
			c-7-8.6-14.1-17.2-21.1-25.9c-0.9-1.1-1.9-1.5-3.3-1.5c-6.1,0-12.3,0-18.4,0c-3,0-3.9,0.9-3.9,3.9c0,25.2,0,50.5,0,75.7
			c0,3,0.9,3.9,3.8,3.9c6.3,0,12.6,0,19,0c3,0,3.9-0.9,3.9-3.9c0-12.1,0-24.3,0-36.4c0-0.7-0.2-1.4,0.2-2.1c0.7,0.2,0.9,0.8,1.3,1.3
			c5.4,6.6,10.8,13.2,16.3,19.8c2,2.4,4.2,2.4,6.2,0c2.1-2.5,4.1-5,6.2-7.6c3.7-4.5,7.4-9.1,11.1-13.6l0.5,0.2c0,0.7,0,1.4,0,2.1
			c0,12.2,0,24.4,0,36.6c0,2.6,1,3.6,3.6,3.6c6.8,0,13.7,0,20.5,0c2.3,0,3.4-1.1,3.4-3.4c0-25.6,0-51.1,0-76.7
			C114.2,61.5,113.1,60.4,110.8,60.4z"/>
		<path class="st1" d="M250.2,115.9c-1.5-2.9-3.3-5.5-5.8-7.5c-1.4-1.1-1-1.6,0.2-2.4c4.4-2.7,7.3-6.7,8.6-11.6
			c3.9-13.7-4.1-29.1-19.8-32.9c-3.7-0.9-7.5-1-11.2-1c-12.1-0.1-24.3,0-36.4,0c-3.2,0-4,0.8-4,4c0,12.6,0,25.2,0,37.8
			c0,12.7,0,25.3,0,38c0,2.9,0.9,3.8,3.7,3.8c6.7,0,13.4,0,20.1,0c2.6,0,3.6-1,3.6-3.6c0-4.2,0-8.3,0-12.5c0-4.3,0-8.7,0-13
			c0-0.9-0.1-1.9,1.2-1.9c3.7-0.2,7,0.5,9.5,3.6c2.3,2.8,4.1,6,5.6,9.3c2.5,5.5,4.9,10.9,7.4,16.4c0.4,0.9,0.9,1.7,2,1.7
			c8.1,0,16.2,0,24.3,0c2,0,3.2-2,2.3-3.8C257.9,132.1,254.3,123.8,250.2,115.9z M225,92.3c-1,1.4-2.6,1.8-4.1,2.1
			c-3.3,0.7-6.6,0.5-9.9,0.5c-1.3,0-1.7-0.6-1.6-1.8c0-2,0-4.1,0-6.1c0-2,0-4,0-5.9c0-1,0.4-1.6,1.5-1.6c3.4,0,6.9-0.2,10.3,0.8
			C225.8,81.8,228,88.2,225,92.3z"/>
		<path class="st1" d="M352.6,115.8c-7.8-17.7-15.6-35.4-23.4-53.1c-0.7-1.6-1.7-2.3-3.5-2.3c-8,0.1-16,0.1-24,0
			c-1.7,0-2.7,0.5-3.3,2.1c-3.4,7.8-6.8,15.6-10.3,23.3c-7.9,17.9-15.8,35.7-23.7,53.6c-1.2,2.8-0.2,4.5,2.9,4.5
			c7.2,0,14.4,0,21.7,0c1.5,0,2.3-0.5,2.9-2c1.6-4.1,3.3-8.2,4.9-12.3c0.5-1.4,1.4-2,2.9-1.9c4.7,0.1,9.3,0,14,0c4.7,0,9.5,0,14.2,0
			c1.5,0,2.3,0.5,2.9,1.9c1.6,4.2,3.4,8.3,5,12.5c0.5,1.3,1.2,1.8,2.6,1.8c7.3,0,14.7,0,22,0c2.8,0,3.9-1.7,2.8-4.3
			C359.6,131.7,356.1,123.8,352.6,115.8z M318.7,110.3c-4,0-7.9,0-11.9,0c-1.5,0-1.8-0.5-1.2-1.9c2.6-6.4,5.2-12.9,7.8-19.3
			c0.1-0.2,0.2-0.4,0.6-1c2.6,6.4,5,12.3,7.3,18.3C322.9,110.3,322.9,110.3,318.7,110.3z"/>
		<path class="st1" d="M600.6,124.1c-9.8,0-19.6,0-29.3,0c-1.9,0-2.5-0.6-2.4-2.4c0.1-2.7,0-5.4,0-8c0-2.6,0-2.6,2.7-2.6
			c9,0,18,0,27,0c2.8,0,3.7-0.9,3.7-3.7c0-3.8,0-7.7,0-11.5c0-4.1-0.6-4.7-4.6-4.7c-8.7,0-17.4,0-26.1,0c-2.7,0-2.7,0-2.7-2.6
			c0-1.5,0-3.1,0-4.6c0-3.7-0.5-3.6,3.5-3.6c9.2,0,18.4,0,27.6,0c3,0,4.1-1,4.1-4c0-4,0-7.9,0-11.9c0-3-1.1-4-4.1-4
			c-18.2,0-36.4,0-54.6,0c-3.1,0-3.9,0.9-3.9,4c0,12.6,0,25.2,0,37.8c0,12.7,0,25.4,0,38.1c0,2.6,0.9,3.6,3.4,3.6
			c18.9,0,37.8,0,56.7,0c2.3,0,3.4-1.1,3.4-3.4c0-4,0-8.1,0-12.1C605,124.8,604.3,124.1,600.6,124.1z"/>
		<path class="st1" d="M447.7,117.9c0-3.1-1.9-4.2-4.5-2.6c-5,3-10.2,5.3-15.9,6.4c-6,1.2-12.1,1.5-18-0.8c-7.8-3-13-8.5-13.7-17.1
			c-0.7-8.6,3.6-15.5,11.8-19.3C415.1,81,423,81,431,83.3c4.4,1.3,8.3,3.6,12.2,5.9c2.1,1.2,4,0.1,4.1-2.3c0-3.2,0-6.4,0-9.6
			c0-2.9-0.1-5.9,0-8.8c0.1-2-0.6-2.9-2.5-3.4c-3-0.8-5.9-1.9-8.8-2.6c-12.9-3.5-25.9-4.5-38.9-0.6c-12.5,3.8-21.9,11.1-26.8,23.6
			c-2.8,7.1-3.4,14.5-2.6,22.1c1.7,15.6,9.8,26.7,24.1,33.2c6.9,3.1,14.2,4.2,21.7,4.2c11.2,0.1,22-1.6,32.1-6.7
			c1.4-0.7,2.1-1.6,2-3.2C447.6,129.3,447.7,123.6,447.7,117.9z"/>
		<path class="st1" d="M523.3,121c-9.7,0-19.4,0-29.1,0c-3.1,0-3.1,0-3.1-3c0-18,0-35.9,0-53.9c0-2.7-0.9-3.7-3.7-3.7
			c-6.7,0-13.3,0-19.9,0c-3,0-3.9,0.9-3.9,3.9c0,12.6,0,25.2,0,37.8c0,12.8,0,25.6,0,38.3c0,2.5,1,3.5,3.5,3.5c19,0,38,0,56.9,0
			c2.5,0,3.5-1,3.5-3.5c0-5.1,0-10.2,0-15.3C527.6,121.8,526.8,121,523.3,121z"/>
		<path class="st1" d="M158.1,60.4c-6.6,0-13.2,0-19.7,0c-3.2,0-4.1,0.9-4.1,4.1c0,12.5,0,25,0,37.6c0,12.6,0,25.3,0,37.9
			c0,3,0.9,3.9,3.9,3.9c6.6,0,13.3,0,19.9,0c2.7,0,3.9-1.1,3.9-3.8c0-25.3,0-50.6,0-75.9C162,61.5,160.9,60.4,158.1,60.4z"/>
		<path class="st1" d="M147.6,53.9c7.7,0,14-6.3,14-14c0-7.7-6.3-14-14-14c-7.7,0-14,6.3-14,14C133.6,47.6,139.9,53.9,147.6,53.9z"
			/>
	</g>
</g>
</svg>
